<mxfile host="app.diagrams.net" agent="Mozilla/5.0 (Windows NT 10.0; Win64; x64) AppleWebKit/537.36 (KHTML, like Gecko) Chrome/128.0.0.0 Safari/537.36" version="24.7.8">
  <diagram name="Page-1" id="OwuY-F9DXiEIC3JWoc6U">
    <mxGraphModel grid="1" page="1" gridSize="10" guides="1" tooltips="1" connect="1" arrows="1" fold="1" pageScale="1" pageWidth="827" pageHeight="1169" math="0" shadow="0">
      <root>
        <mxCell id="0" />
        <mxCell id="1" parent="0" />
        <mxCell id="tvzJ6CJ-baJhrEq-qNqo-1" value="Azure Resource Group (Red Team)" style="swimlane;whiteSpace=wrap;html=1;" vertex="1" parent="1">
          <mxGeometry x="10" y="200" width="810" height="650" as="geometry">
            <mxRectangle x="10" y="200" width="230" height="30" as="alternateBounds" />
          </mxGeometry>
        </mxCell>
        <mxCell id="tvzJ6CJ-baJhrEq-qNqo-23" value="" style="endArrow=classic;startArrow=classic;html=1;rounded=0;fillColor=#ffe6cc;strokeColor=#000000;" edge="1" parent="tvzJ6CJ-baJhrEq-qNqo-1" target="tvzJ6CJ-baJhrEq-qNqo-3">
          <mxGeometry width="50" height="50" relative="1" as="geometry">
            <mxPoint x="150" y="280" as="sourcePoint" />
            <mxPoint x="316" y="320" as="targetPoint" />
            <Array as="points">
              <mxPoint x="150" y="360" />
              <mxPoint x="150" y="450" />
            </Array>
          </mxGeometry>
        </mxCell>
        <mxCell id="tvzJ6CJ-baJhrEq-qNqo-72" value="SSH" style="edgeLabel;html=1;align=center;verticalAlign=middle;resizable=0;points=[];" connectable="0" vertex="1" parent="tvzJ6CJ-baJhrEq-qNqo-23">
          <mxGeometry x="0.071" y="2" relative="1" as="geometry">
            <mxPoint x="-2" y="-3" as="offset" />
          </mxGeometry>
        </mxCell>
        <mxCell id="tvzJ6CJ-baJhrEq-qNqo-31" value="Subnet 10.0.0.0/24" style="swimlane;whiteSpace=wrap;html=1;" vertex="1" parent="tvzJ6CJ-baJhrEq-qNqo-1">
          <mxGeometry x="20" y="60" width="770" height="570" as="geometry">
            <mxRectangle x="440" y="110" width="140" height="30" as="alternateBounds" />
          </mxGeometry>
        </mxCell>
        <mxCell id="tvzJ6CJ-baJhrEq-qNqo-17" value="" style="endArrow=classic;startArrow=classic;html=1;rounded=0;fillColor=#e1d5e7;strokeColor=#000000;" edge="1" parent="tvzJ6CJ-baJhrEq-qNqo-31">
          <mxGeometry width="50" height="50" relative="1" as="geometry">
            <mxPoint x="490" y="260" as="sourcePoint" />
            <mxPoint x="550" y="120" as="targetPoint" />
            <Array as="points">
              <mxPoint x="490" y="190" />
              <mxPoint x="490" y="120" />
              <mxPoint x="500" y="120" />
              <mxPoint x="520" y="120" />
              <mxPoint x="530" y="120" />
            </Array>
            <mxPoint as="offset" />
          </mxGeometry>
        </mxCell>
        <mxCell id="tvzJ6CJ-baJhrEq-qNqo-29" value="Private IP&lt;div&gt;10.0.0.5&lt;/div&gt;&lt;div&gt;Port 22&lt;/div&gt;" style="edgeLabel;html=1;align=center;verticalAlign=middle;resizable=0;points=[];" connectable="0" vertex="1" parent="tvzJ6CJ-baJhrEq-qNqo-17">
          <mxGeometry x="-0.0604" y="-2" relative="1" as="geometry">
            <mxPoint x="-2" y="65" as="offset" />
          </mxGeometry>
        </mxCell>
        <mxCell id="tvzJ6CJ-baJhrEq-qNqo-11" value="Azure Virtual Machine&lt;div&gt;(Web1)&lt;/div&gt;" style="verticalLabelPosition=bottom;html=1;verticalAlign=top;align=center;strokeColor=none;fillColor=#00BEF2;shape=mxgraph.azure.virtual_machine;" vertex="1" parent="tvzJ6CJ-baJhrEq-qNqo-31">
          <mxGeometry x="450" y="260" width="80" height="70" as="geometry" />
        </mxCell>
        <mxCell id="tvzJ6CJ-baJhrEq-qNqo-60" value="Azure Virtual Machine&lt;div&gt;(Web2)&lt;/div&gt;" style="verticalLabelPosition=bottom;html=1;verticalAlign=top;align=center;strokeColor=none;fillColor=#00BEF2;shape=mxgraph.azure.virtual_machine;" vertex="1" parent="tvzJ6CJ-baJhrEq-qNqo-31">
          <mxGeometry x="650" y="260" width="80" height="70" as="geometry" />
        </mxCell>
        <mxCell id="tvzJ6CJ-baJhrEq-qNqo-18" value="" style="endArrow=classic;startArrow=classic;html=1;rounded=0;fillColor=#e1d5e7;strokeColor=#000000;exitX=0.5;exitY=0;exitDx=0;exitDy=0;exitPerimeter=0;" edge="1" parent="tvzJ6CJ-baJhrEq-qNqo-31" source="tvzJ6CJ-baJhrEq-qNqo-60">
          <mxGeometry width="50" height="50" relative="1" as="geometry">
            <mxPoint x="680" y="240" as="sourcePoint" />
            <mxPoint x="650" y="120" as="targetPoint" />
            <Array as="points">
              <mxPoint x="690" y="120" />
            </Array>
          </mxGeometry>
        </mxCell>
        <mxCell id="tvzJ6CJ-baJhrEq-qNqo-30" value="Private IP&lt;div&gt;10.0.0.6&lt;/div&gt;&lt;div&gt;Port 22&lt;/div&gt;" style="edgeLabel;html=1;align=center;verticalAlign=middle;resizable=0;points=[];" connectable="0" vertex="1" parent="tvzJ6CJ-baJhrEq-qNqo-18">
          <mxGeometry x="-0.4194" relative="1" as="geometry">
            <mxPoint y="22" as="offset" />
          </mxGeometry>
        </mxCell>
        <mxCell id="tvzJ6CJ-baJhrEq-qNqo-36" value="&lt;div&gt;Ansible Docker Continer&lt;/div&gt;" style="shape=image;html=1;verticalAlign=top;verticalLabelPosition=bottom;labelBackgroundColor=#ffffff;imageAspect=0;aspect=fixed;image=https://cdn2.iconfinder.com/data/icons/boxicons-logos/24/bxl-docker-128.png" vertex="1" parent="tvzJ6CJ-baJhrEq-qNqo-31">
          <mxGeometry x="552" y="340" width="78" height="78" as="geometry" />
        </mxCell>
        <mxCell id="tvzJ6CJ-baJhrEq-qNqo-62" value="" style="endArrow=classic;startArrow=classic;html=1;rounded=0;entryX=0;entryY=0.5;entryDx=0;entryDy=0;entryPerimeter=0;" edge="1" parent="tvzJ6CJ-baJhrEq-qNqo-31" target="tvzJ6CJ-baJhrEq-qNqo-60">
          <mxGeometry width="50" height="50" relative="1" as="geometry">
            <mxPoint x="610" y="340" as="sourcePoint" />
            <mxPoint x="560" y="290" as="targetPoint" />
            <Array as="points">
              <mxPoint x="610" y="295" />
            </Array>
          </mxGeometry>
        </mxCell>
        <mxCell id="tvzJ6CJ-baJhrEq-qNqo-63" value="" style="endArrow=classic;startArrow=classic;html=1;rounded=0;entryX=1;entryY=0.5;entryDx=0;entryDy=0;entryPerimeter=0;" edge="1" parent="tvzJ6CJ-baJhrEq-qNqo-31" target="tvzJ6CJ-baJhrEq-qNqo-11">
          <mxGeometry width="50" height="50" relative="1" as="geometry">
            <mxPoint x="570" y="340" as="sourcePoint" />
            <mxPoint x="610" y="295" as="targetPoint" />
            <Array as="points">
              <mxPoint x="570" y="295" />
            </Array>
          </mxGeometry>
        </mxCell>
        <mxCell id="tvzJ6CJ-baJhrEq-qNqo-64" value="DVWA Containers" style="whiteSpace=wrap;html=1;" vertex="1" parent="tvzJ6CJ-baJhrEq-qNqo-31">
          <mxGeometry x="555" y="265" width="70" height="30" as="geometry" />
        </mxCell>
        <mxCell id="tvzJ6CJ-baJhrEq-qNqo-51" value="Cloud Internet Service" style="rounded=1;whiteSpace=wrap;html=1;" vertex="1" parent="1">
          <mxGeometry x="340" y="870" width="120" height="60" as="geometry" />
        </mxCell>
        <mxCell id="tvzJ6CJ-baJhrEq-qNqo-52" value="" style="endArrow=classic;startArrow=classic;html=1;rounded=0;exitX=0.5;exitY=0;exitDx=0;exitDy=0;fillColor=#fff2cc;strokeColor=#000000;" edge="1" parent="1" source="tvzJ6CJ-baJhrEq-qNqo-51">
          <mxGeometry width="50" height="50" relative="1" as="geometry">
            <mxPoint x="400" y="670" as="sourcePoint" />
            <mxPoint x="160" y="770" as="targetPoint" />
            <Array as="points">
              <mxPoint x="400" y="800" />
              <mxPoint x="160" y="800" />
            </Array>
          </mxGeometry>
        </mxCell>
        <mxCell id="tvzJ6CJ-baJhrEq-qNqo-59" value="Azure Virtual Network (RedTeamVNet) 10.0.0.0/16" style="swimlane;whiteSpace=wrap;html=1;" vertex="1" parent="1">
          <mxGeometry x="20" y="230" width="790" height="610" as="geometry" />
        </mxCell>
        <mxCell id="tvzJ6CJ-baJhrEq-qNqo-3" value="Network Security Group&lt;br&gt;RedTeamNSG" style="sketch=0;outlineConnect=0;fontColor=#232F3E;gradientColor=none;fillColor=#232F3D;strokeColor=none;dashed=0;verticalLabelPosition=bottom;verticalAlign=top;align=center;html=1;fontSize=12;fontStyle=0;aspect=fixed;pointerEvents=1;shape=mxgraph.aws4.shield2;" vertex="1" parent="tvzJ6CJ-baJhrEq-qNqo-59">
          <mxGeometry x="110" y="440" width="60" height="60" as="geometry" />
        </mxCell>
        <mxCell id="tvzJ6CJ-baJhrEq-qNqo-12" value="Azure Virtual Machine&lt;div&gt;(&lt;span style=&quot;background-color: initial;&quot;&gt;JumpBoxProvisioner)&lt;/span&gt;&lt;/div&gt;&lt;div&gt;&lt;br&gt;&lt;/div&gt;" style="verticalLabelPosition=bottom;html=1;verticalAlign=top;align=center;strokeColor=none;fillColor=#00BEF2;shape=mxgraph.azure.virtual_machine;" vertex="1" parent="tvzJ6CJ-baJhrEq-qNqo-59">
          <mxGeometry x="100" y="140" width="80" height="60" as="geometry" />
        </mxCell>
        <mxCell id="tvzJ6CJ-baJhrEq-qNqo-16" value="Load Balancer&lt;div&gt;(RedTeamLB)&lt;/div&gt;&lt;div&gt;52.237.214.16&lt;br&gt;&lt;/div&gt;" style="outlineConnect=0;dashed=0;verticalLabelPosition=bottom;verticalAlign=top;align=center;html=1;shape=mxgraph.aws3.classic_load_balancer;fillColor=#F58536;gradientColor=none;" vertex="1" parent="tvzJ6CJ-baJhrEq-qNqo-59">
          <mxGeometry x="570" y="120" width="80" height="81" as="geometry" />
        </mxCell>
        <mxCell id="tvzJ6CJ-baJhrEq-qNqo-65" value="" style="endArrow=classic;startArrow=classic;html=1;rounded=0;" edge="1" parent="1">
          <mxGeometry width="50" height="50" relative="1" as="geometry">
            <mxPoint x="120" y="700" as="sourcePoint" />
            <mxPoint x="630" y="340" as="targetPoint" />
            <Array as="points">
              <mxPoint x="80" y="700" />
              <mxPoint x="80" y="320" />
              <mxPoint x="630" y="320" />
            </Array>
          </mxGeometry>
        </mxCell>
        <mxCell id="tvzJ6CJ-baJhrEq-qNqo-73" value="HTTP&lt;div&gt;Port 80&lt;/div&gt;" style="edgeLabel;html=1;align=center;verticalAlign=middle;resizable=0;points=[];" connectable="0" vertex="1" parent="tvzJ6CJ-baJhrEq-qNqo-65">
          <mxGeometry x="-0.5184" y="2" relative="1" as="geometry">
            <mxPoint as="offset" />
          </mxGeometry>
        </mxCell>
        <mxCell id="tvzJ6CJ-baJhrEq-qNqo-67" value="" style="endArrow=classic;startArrow=classic;html=1;rounded=0;" edge="1" parent="1">
          <mxGeometry width="50" height="50" relative="1" as="geometry">
            <mxPoint x="210" y="400" as="sourcePoint" />
            <mxPoint x="610" y="710" as="targetPoint" />
            <Array as="points">
              <mxPoint x="360" y="400" />
              <mxPoint x="360" y="760" />
              <mxPoint x="610" y="760" />
            </Array>
          </mxGeometry>
        </mxCell>
        <mxCell id="tvzJ6CJ-baJhrEq-qNqo-71" value="SSH" style="edgeLabel;html=1;align=center;verticalAlign=middle;resizable=0;points=[];" connectable="0" vertex="1" parent="tvzJ6CJ-baJhrEq-qNqo-67">
          <mxGeometry x="-0.1906" y="-1" relative="1" as="geometry">
            <mxPoint as="offset" />
          </mxGeometry>
        </mxCell>
        <mxCell id="tvzJ6CJ-baJhrEq-qNqo-68" value="" style="endArrow=classic;startArrow=classic;html=1;rounded=0;strokeColor=#000000;" edge="1" parent="1">
          <mxGeometry width="50" height="50" relative="1" as="geometry">
            <mxPoint x="400" y="1000" as="sourcePoint" />
            <mxPoint x="400" y="930" as="targetPoint" />
          </mxGeometry>
        </mxCell>
        <mxCell id="tvzJ6CJ-baJhrEq-qNqo-69" value="HTTP&lt;div&gt;SSH&lt;/div&gt;" style="edgeLabel;html=1;align=center;verticalAlign=middle;resizable=0;points=[];" connectable="0" vertex="1" parent="tvzJ6CJ-baJhrEq-qNqo-68">
          <mxGeometry x="0.0517" y="-2" relative="1" as="geometry">
            <mxPoint x="-2" as="offset" />
          </mxGeometry>
        </mxCell>
        <mxCell id="tvzJ6CJ-baJhrEq-qNqo-70" value="My Local Machine" style="image;points=[];aspect=fixed;html=1;align=center;shadow=0;dashed=0;image=img/lib/allied_telesis/computer_and_terminals/Personal_Computer.svg;" vertex="1" parent="1">
          <mxGeometry x="359.41" y="1010" width="81.17" height="110" as="geometry" />
        </mxCell>
      </root>
    </mxGraphModel>
  </diagram>
</mxfile>
